<svg xmlns="http://www.w3.org/2000/svg" viewBox="0 0 19 19">
    <linearGradient id="a" gradientUnits="userSpaceOnUse" x1="4.749" y1="1.271" x2="14.251" y2="17.729">
        <stop offset="0" stop-color="#57de8b"/>
        <stop offset="1" stop-color="#1695b2"/>
    </linearGradient>
    <circle cx="9.5" cy="9.5" r="9.5" fill="url(#a)"/>
    <g>
        <path d="M13.9 12.7l-3.2-3.2 3.2-3.2c.1-.1.3-.7-.1-1.1-.4-.4-.9-.3-1.1-.1L9.5 8.3 6.3 5.1c-.2-.1-.7-.3-1.1.1-.4.4-.2.9-.1 1.1l3.2 3.2-3.2 3.2c-.1.1-.3.7.1 1.1.4.4.9.3 1.1.1l3.2-3.2 3.2 3.2c.1.1.7.3 1.1-.1s.2-.9.1-1.1z"
              fill="#fff"/>
    </g>
</svg>
