<?xml version="1.0" standalone="no"?>
<!DOCTYPE svg PUBLIC "-//W3C//DTD SVG 20010904//EN"
        "http://www.w3.org/TR/2001/REC-SVG-20010904/DTD/svg10.dtd">
<svg version="1.0" xmlns="http://www.w3.org/2000/svg"
     width="512.000000pt" height="512.000000pt" viewBox="0 0 512.000000 512.000000"
     preserveAspectRatio="xMidYMid meet">
    <metadata>
        Created by potrace 1.11, written by Peter Selinger 2001-2013
    </metadata>
    <g transform="translate(0.000000,512.000000) scale(0.100000,-0.100000)"
       fill="#000000" stroke="none">
        <path d="M2508 4514 c-2 -5 -4 -118 -3 -251 l1 -243 -35 -6 c-123 -20 -260
-80 -350 -152 -89 -73 -167 -167 -202 -244 -6 -15 -16 -25 -20 -22 -5 3 -6 -2
-3 -11 4 -8 2 -21 -3 -28 -5 -6 -17 -37 -26 -67 -63 -211 -27 -457 93 -634 48
-73 154 -180 209 -212 17 -10 31 -22 31 -26 0 -4 5 -8 10 -8 6 0 29 -12 53
-27 23 -15 58 -36 77 -46 37 -20 66 -37 115 -66 l30 -18 0 -106 c0 -79 3 -107
13 -108 62 -4 171 -1 181 5 7 5 11 23 9 41 -1 19 0 37 4 40 6 6 79 -33 90 -50
4 -5 8 -7 8 -3 0 11 123 -65 161 -99 45 -40 112 -139 138 -203 84 -214 20
-468 -155 -618 -53 -45 -142 -93 -192 -103 -4 -1 -18 -6 -32 -11 -14 -5 -63
-12 -110 -15 -47 -3 -87 -7 -90 -10 -2 -2 -5 -113 -5 -246 l0 -242 -40 1 c-61
1 -172 13 -219 24 -22 5 -55 11 -73 15 -18 3 -43 9 -57 15 -15 5 -26 7 -26 4
0 -2 -13 2 -30 11 -16 8 -33 15 -37 15 -21 1 -83 22 -88 30 -3 6 -14 10 -23
10 -9 0 -67 24 -127 54 -426 209 -760 589 -910 1038 -38 116 -71 256 -83 358
-14 128 -7 425 13 520 2 14 10 50 16 80 31 160 115 378 194 505 14 22 28 47
32 55 10 23 108 161 138 195 14 17 33 40 42 53 8 12 20 22 25 22 6 0 56 -45
111 -101 73 -74 98 -105 91 -114 -5 -8 -35 -46 -66 -87 -126 -162 -245 -422
-275 -595 -2 -13 -6 -35 -9 -50 -25 -136 -25 -413 0 -524 3 -13 8 -35 10 -49
18 -110 87 -299 148 -403 15 -26 28 -50 28 -53 0 -8 90 -135 134 -189 42 -52
163 -173 213 -213 75 -61 269 -182 292 -182 8 0 65 95 139 230 19 36 41 72 48
81 8 8 14 19 14 22 0 4 11 24 23 45 13 20 35 57 49 82 14 25 35 62 47 83 12
21 19 42 16 47 -3 5 -1 11 5 15 19 12 10 24 -32 44 -54 25 -101 53 -110 66 -4
6 -8 7 -8 3 0 -8 -60 43 -108 92 -131 134 -218 336 -221 513 l-1 47 -106 0
-106 0 6 -77 c16 -204 62 -342 171 -508 45 -70 217 -245 240 -245 16 0 3 -28
-66 -145 -16 -27 -37 -65 -46 -83 -9 -17 -22 -32 -28 -32 -13 0 -140 104 -195
160 -133 134 -244 317 -305 504 -49 151 -60 224 -60 396 0 172 5 215 39 348
16 60 21 75 53 152 46 110 124 249 145 258 5 2 8 8 8 13 0 13 23 40 120 142
47 49 84 95 82 101 -1 7 -110 121 -242 254 l-240 241 -47 -42 c-25 -23 -54
-50 -62 -61 -9 -10 -25 -28 -36 -40 -17 -17 -98 -118 -171 -211 -35 -45 -142
-235 -183 -325 -54 -119 -128 -362 -144 -470 -34 -227 -38 -470 -11 -630 22
-130 28 -162 41 -210 25 -93 64 -213 84 -257 10 -24 19 -45 19 -49 0 -18 111
-223 167 -307 108 -164 269 -342 418 -463 63 -52 230 -164 243 -164 6 0 12 -4
14 -8 3 -8 187 -99 243 -121 11 -5 31 -13 45 -19 71 -30 275 -85 363 -97 27
-3 58 -8 69 -10 71 -14 341 -26 381 -17 16 4 18 19 17 176 -1 94 -1 208 -1
253 l1 81 33 8 c17 4 34 8 37 9 55 11 168 65 235 113 64 46 156 141 181 187
10 19 22 35 26 35 5 0 8 5 8 11 0 6 10 25 22 42 13 18 21 33 19 35 -2 2 4 22
13 45 118 313 -10 702 -289 879 -33 20 -65 42 -72 48 -7 5 -16 10 -20 10 -4 0
-55 29 -112 64 l-105 63 1 161 2 162 -102 0 -102 0 1 -97 c1 -97 -3 -124 -15
-106 -3 5 -51 36 -106 68 -123 73 -133 81 -205 165 -90 104 -136 289 -108 440
25 140 115 276 234 355 101 68 207 93 386 95 l38 0 -1 223 c0 122 1 232 1 245
0 23 2 23 77 17 42 -3 79 -8 83 -10 4 -3 22 -6 41 -9 118 -15 333 -88 483
-165 151 -77 365 -228 348 -246 -4 -5 -2 -5 5 -1 12 7 156 -132 208 -200 16
-22 32 -41 36 -44 15 -12 119 -166 119 -177 0 -7 3 -13 8 -13 4 0 12 -10 18
-23 6 -12 30 -59 54 -105 23 -46 43 -89 45 -95 1 -7 9 -29 19 -49 9 -21 16
-43 16 -51 0 -7 4 -17 9 -22 10 -11 66 -235 75 -300 3 -22 8 -59 12 -83 9 -62
9 -274 1 -365 -15 -155 -58 -340 -107 -462 -5 -11 -14 -36 -22 -55 -26 -69
-110 -226 -160 -300 -53 -79 -159 -213 -164 -208 -1 2 -50 48 -108 103 -58 54
-102 102 -98 105 15 11 81 99 129 170 89 135 149 269 193 432 27 99 28 105 46
253 5 40 4 219 -1 270 -12 113 -18 150 -40 235 -49 194 -129 361 -254 530 -71
97 -240 263 -326 320 -36 25 -72 50 -78 55 -7 6 -45 27 -85 48 l-72 38 -62
-128 c-34 -70 -86 -168 -115 -216 -29 -48 -53 -90 -53 -93 0 -2 -12 -23 -27
-47 -79 -123 -82 -139 -30 -165 198 -103 335 -269 403 -491 14 -48 29 -148 25
-169 -5 -30 17 -37 116 -36 l98 1 0 49 c-1 158 -64 346 -167 497 -42 61 -182
210 -225 239 l-23 15 40 66 c22 36 40 71 40 76 0 6 5 11 10 11 6 0 10 5 10 10
0 6 12 30 28 54 l27 45 34 -30 c19 -16 37 -29 40 -29 9 0 143 -131 191 -185
19 -22 58 -76 88 -120 184 -275 255 -618 196 -955 -7 -41 -51 -197 -63 -225
-18 -41 -92 -191 -104 -210 -57 -93 -108 -156 -204 -254 l-73 -75 137 -134
c138 -134 272 -262 330 -316 l32 -28 58 59 c167 170 301 354 378 523 9 19 29
62 44 95 40 85 88 231 116 349 39 167 49 264 49 456 0 127 -2 170 -18 290 -3
24 -15 99 -21 130 -11 54 -70 254 -85 285 -5 11 -21 49 -36 85 -66 163 -194
370 -313 507 -187 217 -375 366 -618 488 -57 29 -101 54 -99 56 2 2 -5 5 -17
5 -12 1 -42 11 -67 22 -88 39 -250 83 -395 107 -108 19 -380 32 -387 19z"/>
    </g>
</svg>
